{
  "accessors": [
    {
      "bufferView": 2,
      "componentType": 5126,
      "count": 9986,
      "max": [
        0.5885459780693054,
        1.2265030145645142,
        2.8552279472351074
      ],
      "min": [
        -1.5657049417495728,
        -1.2265030145645142,
        0.02259800024330616
      ],
      "type": "VEC3"
    },
    {
      "bufferView": 2,
      "byteOffset": 119832,
      "componentType": 5126,
      "count": 9986,
      "max": [
        1.0,
        1.0,
        1.0
      ],
      "min": [
        -1.0,
        -1.0,
        -1.0
      ],
      "type": "VEC3"
    },
    {
      "bufferView": 1,
      "componentType": 5126,
      "count": 9986,
      "max": [
        0.9999989867210388,
        0.999334990978241
      ],
      "min": [
        0.0,
        0.0
      ],
      "type": "VEC2"
    },
    {
      "bufferView": 1,
      "byteOffset": 79888,
      "componentType": 5126,
      "count": 9986,
      "max": [
        0.9999989867210388,
        0.999334990978241
      ],
      "min": [
        0.0,
        0.0
      ],
      "type": "VEC2"
    },
    {
      "bufferView": 1,
      "byteOffset": 159776,
      "componentType": 5126,
      "count": 9986,
      "max": [
        0.9999989867210388,
        0.999334990978241
      ],
      "min": [
        0.0,
        0.0
      ],
      "type": "VEC2"
    },
    {
      "bufferView": 0,
      "componentType": 5125,
      "count": 54552,
      "type": "SCALAR"
    },
    {
      "bufferView": 2,
      "byteOffset": 239664,
      "componentType": 5126,
      "count": 998,
      "max": [
        0.0741019994020462,
        0.6163300275802612,
        2.7313969135284424
      ],
      "min": [
        -0.09358999878168106,
        -0.6163300275802612,
        2.3631908893585205
      ],
      "type": "VEC3"
    },
    {
      "bufferView": 2,
      "byteOffset": 251640,
      "componentType": 5126,
      "count": 998,
      "max": [
        0.9999983310699463,
        0.9993599057197571,
        0.998515248298645
      ],
      "min": [
        -0.9999931454658508,
        -0.9993599057197571,
        -0.9573822617530823
      ],
      "type": "VEC3"
    },
    {
      "bufferView": 1,
      "byteOffset": 239664,
      "componentType": 5126,
      "count": 998,
      "max": [
        0.9971219897270203,
        0.330826997756958
      ],
      "min": [
        0.0,
        0.0
      ],
      "type": "VEC2"
    },
    {
      "bufferView": 1,
      "byteOffset": 247648,
      "componentType": 5126,
      "count": 998,
      "max": [
        0.9971219897270203,
        0.330826997756958
      ],
      "min": [
        0.0,
        0.0
      ],
      "type": "VEC2"
    },
    {
      "bufferView": 1,
      "byteOffset": 255632,
      "componentType": 5126,
      "count": 998,
      "max": [
        0.9971219897270203,
        0.330826997756958
      ],
      "min": [
        0.0,
        0.0
      ],
      "type": "VEC2"
    },
    {
      "bufferView": 0,
      "byteOffset": 218208,
      "componentType": 5125,
      "count": 5760,
      "type": "SCALAR"
    }
  ],
  "asset": {
    "extras": {
      "author": "tsukii (https://sketchfab.com/buttercup23)",
      "license": "CC-BY-4.0 (http://creativecommons.org/licenses/by/4.0/)",
      "source": "https://sketchfab.com/3d-models/neco-arc-my-version-cd7eaae12c2941d9959e2cadc7574701",
      "title": "Neco Arc (My Version)"
    },
    "generator": "Sketchfab-14.86.0",
    "version": "2.0"
  },
  "bufferViews": [
    {
      "buffer": 0,
      "byteLength": 241248,
      "name": "floatBufferViews",
      "target": 34963
    },
    {
      "buffer": 0,
      "byteLength": 263616,
      "byteOffset": 241248,
      "byteStride": 8,
      "name": "floatBufferViews",
      "target": 34962
    },
    {
      "buffer": 0,
      "byteLength": 263616,
      "byteOffset": 504864,
      "byteStride": 12,
      "name": "floatBufferViews",
      "target": 34962
    }
  ],
  "buffers": [
    {
      "byteLength": 768480,
      "uri": "scene.bin"
    }
  ],
  "extensionsRequired": [
    "KHR_materials_pbrSpecularGlossiness"
  ],
  "extensionsUsed": [
    "KHR_materials_pbrSpecularGlossiness"
  ],
  "images": [
    {
      "uri": "textures/material_0_diffuse.png"
    },
    {
      "uri": "textures/material_0_specularGlossiness.png"
    }
  ],
  "materials": [
    {
      "doubleSided": true,
      "extensions": {
        "KHR_materials_pbrSpecularGlossiness": {
          "diffuseFactor": [
            1.0,
            1.0,
            1.0,
            1.0
          ],
          "diffuseTexture": {
            "index": 0
          },
          "glossinessFactor": 1.0,
          "specularFactor": [
            1.0,
            1.0,
            1.0
          ],
          "specularGlossinessTexture": {
            "index": 1
          }
        }
      },
      "name": "material_0"
    },
    {
      "doubleSided": true,
      "extensions": {
        "KHR_materials_pbrSpecularGlossiness": {
          "diffuseFactor": [
            1.0,
            1.0,
            1.0,
            1.0
          ],
          "diffuseTexture": {
            "index": 0
          },
          "glossinessFactor": 1.0,
          "specularFactor": [
            1.0,
            1.0,
            1.0
          ],
          "specularGlossinessTexture": {
            "index": 1
          }
        }
      },
      "name": "material_1"
    }
  ],
  "meshes": [
    {
      "name": "Object_0",
      "primitives": [
        {
          "attributes": {
            "NORMAL": 1,
            "POSITION": 0,
            "TEXCOORD_0": 2,
            "TEXCOORD_1": 3,
            "TEXCOORD_2": 4
          },
          "indices": 5,
          "material": 0,
          "mode": 4
        }
      ]
    },
    {
      "name": "Object_1",
      "primitives": [
        {
          "attributes": {
            "NORMAL": 7,
            "POSITION": 6,
            "TEXCOORD_0": 8,
            "TEXCOORD_1": 9,
            "TEXCOORD_2": 10
          },
          "indices": 11,
          "material": 1,
          "mode": 4
        }
      ]
    }
  ],
  "nodes": [
    {
      "children": [
        1
      ],
      "matrix": [
        1.0,
        0.0,
        0.0,
        0.0,
        0.0,
        2.220446049250313e-16,
        -1.0,
        0.0,
        0.0,
        1.0,
        2.220446049250313e-16,
        0.0,
        0.0,
        0.0,
        0.0,
        1.0
      ],
      "name": "Sketchfab_model"
    },
    {
      "children": [
        2
      ],
      "name": "root"
    },
    {
      "children": [
        3
      ],
      "matrix": [
        1.0,
        0.0,
        0.0,
        0.0,
        0.0,
        2.220446049250313e-16,
        1.0,
        0.0,
        0.0,
        -1.0,
        2.220446049250313e-16,
        0.0,
        0.0,
        0.0,
        0.0,
        1.0
      ],
      "name": "GLTF_SceneRootNode"
    },
    {
      "children": [
        4
      ],
      "name": "root_0"
    },
    {
      "children": [
        5,
        8
      ],
      "matrix": [
        1.3980588782509111e-05,
        -2.9013321261919877e-05,
        0.0009994812981349635,
        0.0,
        -1.4129100106178417e-06,
        0.000999577186299648,
        2.9035868305085564e-05,
        0.0,
        -0.0009999011996351956,
        -1.8181157915773895e-06,
        1.3933685346260805e-05,
        0.0,
        0.2559747099876404,
        0.00046543788630515337,
        0.2524331212043762,
        1.0
      ],
      "name": "node_id11_1"
    },
    {
      "children": [
        6
      ],
      "matrix": [
        180.75074768066406,
        -0.0,
        0.0,
        0.0,
        0.0,
        3.0472295472463366e-05,
        -180.7507324218724,
        0.0,
        0.0,
        180.7507324218724,
        3.0472295472463366e-05,
        0.0,
        88.31110382080078,
        -260.0845947265625,
        256.0,
        1.0
      ],
      "name": "node_id5_2"
    },
    {
      "children": [
        7
      ],
      "name": "node_id6_3"
    },
    {
      "mesh": 0,
      "name": "Object_7"
    },
    {
      "children": [
        9
      ],
      "matrix": [
        180.75074768066406,
        -0.0,
        0.0,
        0.0,
        0.0,
        3.0472295472463366e-05,
        -180.7507324218724,
        0.0,
        0.0,
        180.7507324218724,
        3.0472295472463366e-05,
        0.0,
        88.31110382080078,
        -260.0845947265625,
        256.0,
        1.0
      ],
      "name": "node_id8_4"
    },
    {
      "children": [
        10
      ],
      "name": "node_id9_5"
    },
    {
      "mesh": 1,
      "name": "Object_10"
    }
  ],
  "samplers": [
    {
      "magFilter": 9729,
      "minFilter": 9987,
      "wrapS": 10497,
      "wrapT": 10497
    }
  ],
  "scene": 0,
  "scenes": [
    {
      "name": "Sketchfab_Scene",
      "nodes": [
        0
      ]
    }
  ],
  "textures": [
    {
      "sampler": 0,
      "source": 0
    },
    {
      "sampler": 0,
      "source": 1
    }
  ]
}
